<svg width="713" height="250" xmlns="http://www.w3.org/2000/svg">

 <g>
  <title>Layer 1</title>
  <g stroke="null"/>
  <g stroke="null" id="svg_12">
   <text stroke="#000" transform="matrix(3.07038 0 0 3.07038 -457.106 -610.137)" xml:space="preserve" text-anchor="start" font-family="'Cabin'" font-size="24" id="svg_2" y="250.82465" x="227.40956" stroke-width="0" fill="#ffaa56">CS Logs</text>
   <text stroke="#000" transform="matrix(3.07038 0 0 3.07038 -457.106 -610.137)" xml:space="preserve" text-anchor="start" font-family="'Cabin'" font-size="24" id="svg_3" y="251.08145" x="312.0846" stroke-width="0" fill="#ff5656">viewer</text>
   <g stroke="null" id="svg_11">
    <rect stroke="#000" transform="matrix(2.39144 0.824787 -0.824787 2.39144 0.841086 -452.919)" rx="22" id="svg_8" height="77.67468" width="77.67468" y="162.07626" x="79.20028" stroke-width="0" fill="#ffd0a5"/>
    <rect stroke="#000" rx="22" id="svg_6" height="196.4915" width="196.4915" y="27.23957" x="18.76328" stroke-width="0" fill="#ffaa56"/>
    <g stroke="null">
     <g stroke="null">
      <path stroke="null" fill="#FABA45" d="m158.99956,103.47319l-29.26978,0l-8.6117,-12.63153l-9.28814,0l0.02875,12.63153l-30.85577,0c-16.22898,0 -29.3848,13.15582 -29.3848,29.3848c0,16.2287 13.15582,29.3848 29.3848,29.3848l77.99662,0c16.22898,0 29.3848,-13.1561 29.3848,-29.3848c0,-16.22898 -13.15582,-29.3848 -29.3848,-29.3848z"/>
      <circle stroke="null" fill="#E95B2D" r="29.3848" cy="132.85799" cx="81.00294"/>
      <path stroke="null" fill="#0F2639" d="m158.99956,101.37938l-28.16313,0l-8.6117,-12.63153l-12.49306,0l0.02875,12.63153l-28.75749,0c-17.3574,0 -31.47861,14.12149 -31.47861,31.47861s14.12121,31.47861 31.47861,31.47861l77.99662,0c17.3574,0 31.47861,-14.12121 31.47861,-31.47861s-14.12121,-31.47861 -31.47861,-31.47861zm-105.28761,31.47861c0,-15.04835 12.24264,-27.29099 27.29099,-27.29099c15.04807,0 27.29071,12.24264 27.29071,27.29099c0,15.04835 -12.24264,27.29099 -27.29071,27.29099c-15.04835,0 -27.29099,-12.24264 -27.29099,-27.29099zm105.28761,27.29099l-62.32181,0c2.71162,-1.56366 5.16864,-3.52095 7.29511,-5.79148l31.58413,0l0,-4.18762l-28.27731,0c3.28533,-4.97014 5.20158,-10.92103 5.20158,-17.31189c0,-2.0416 -0.19766,-4.03714 -0.57063,-5.97154l30.24745,0l0,-4.18762l-31.3594,0c-0.7225,-2.11307 -1.66444,-4.12536 -2.79761,-6.01007l55.87623,0l0,-4.18762l-58.88489,0c-2.34618,-2.76076 -5.15775,-5.11392 -8.31438,-6.93414l17.27951,0l-0.02875,-12.63153l6.08293,0l8.6117,12.63153l30.37642,0c15.04835,0 27.29099,12.24264 27.29099,27.29099c-0.00028,15.04835 -12.24292,27.29099 -27.29127,27.29099z"/>
      <path stroke="null" fill="#0F2639" d="m90.69504,152.49094l-1.85902,-3.75239c-2.44892,1.21329 -5.08433,1.82859 -7.83308,1.82859c-9.76497,0 -17.70916,-7.94419 -17.70916,-17.70888c0,-9.76497 7.94419,-17.70916 17.70916,-17.70916c9.76469,0 17.70888,7.94419 17.70888,17.70916c0.00028,4.58321 -1.7521,8.93386 -4.93385,12.25046l3.02179,2.89923c3.93357,-4.09996 6.09968,-9.48021 6.09968,-15.14969c0,-12.07402 -9.82276,-21.89678 -21.8965,-21.89678c-12.07374,0 -21.89678,9.82276 -21.89678,21.89678c0,12.07374 9.82276,21.8965 21.89678,21.8965c3.39923,-0.00028 6.65999,-0.76187 9.6921,-2.26383z"/>
      <path stroke="null" fill="#0F2639" d="m68.68827,132.85799c0,6.79036 5.52431,12.31439 12.31467,12.31439c6.79036,0 12.31439,-5.52431 12.31439,-12.31439c0,-6.79036 -5.52431,-12.31467 -12.31439,-12.31467c-6.79036,0 -12.31467,5.52431 -12.31467,12.31467zm20.44144,0c0,4.48103 -3.64574,8.12677 -8.12677,8.12677c-4.48131,0 -8.12705,-3.64574 -8.12705,-8.12677c0,-4.48131 3.64574,-8.12705 8.12705,-8.12705c4.48103,0 8.12677,3.64574 8.12677,8.12705z"/>
      <rect stroke="null" fill="#0F2639" height="4.18762" width="29.54393" y="122.69911" x="148.54671"/>
      <path stroke="null" fill="#0F2639" d="m152.43198,140.51072c-4.64658,0 -8.42688,3.7803 -8.42688,8.42716l4.18762,0c0,-2.33781 1.90174,-4.23954 4.23927,-4.23954c2.33753,0 4.23927,1.90174 4.23927,4.23954l4.18762,0c0,-4.64714 -3.7803,-8.42716 -8.42688,-8.42716z"/>
      <path stroke="null" fill="#0F2639" d="m152.43198,132.20472c-4.56646,0 -8.90651,1.85986 -12.05643,5.13514l-24.00901,0l0,4.18762l25.90014,0l0.62703,-0.73339c2.39085,-2.79733 5.86769,-4.40175 9.53828,-4.40175c3.67059,0 7.14743,1.60442 9.538,4.40175l0.62675,0.73339l15.49363,0l0,-4.18762l-13.60194,0c-3.14965,-3.27528 -7.48997,-5.13514 -12.05643,-5.13514z"/>
     </g>
    </g>
   </g>
  </g>
 </g>
</svg>